<svg xmlns="http://www.w3.org/2000/svg" xmlns:xlink="http://www.w3.org/1999/xlink" aria-hidden="true" version="1.1" style="position:absolute;width:0;height:0;overflow:hidden"><defs><symbol id="icon-internet" viewBox="0 0 32 32"><path d="M24.569 26.706h-3.488c-0.126 0-0.229-0.103-0.229-0.229v-0.849c0-0.126-0.103-0.229-0.229-0.229h-4.881c-0.126 0-0.229 0.103-0.229 0.229v0.849c0 0.126-0.103 0.229-0.229 0.229h-2.622c-0.126 0-0.229 0.103-0.229 0.229v0.982c0 0.126 0.103 0.229 0.229 0.229h11.906c0.126 0 0.229-0.103 0.229-0.229v-0.982c0-0.126-0.103-0.229-0.229-0.229z"/><path d="M30.429 3.742h-24.89c-0.866 0-1.571 0.705-1.571 1.571 0 0 0 2.995 0 4.097 0 0.542-0.040 0.618 0.323 0.618 0.193 0 0.407 0 0.623 0 0.305 0 0.242-0.077 0.242-0.628 0-1.099 0-4.087 0-4.087 0-0.207 0.175-0.382 0.382-0.382h24.89c0.207 0 0.382 0.175 0.382 0.382v15.334h-17.745c0 0-0.625-0.001-0.625 0.808 0 0.479 0 1.438 0 1.918 0 0.808 0.646 0.808 0.646 0.808h17.343c0.866 0 1.571-0.704 1.571-1.57v-17.297c0-0.866-0.705-1.571-1.571-1.571zM17.984 22.824c-0.391 0-0.708-0.317-0.708-0.708s0.317-0.708 0.708-0.708c0.391 0 0.708 0.317 0.708 0.708s-0.317 0.708-0.708 0.708z"/><path d="M10.018 11.431h-9.004c-0.559 0-1.014 0.455-1.014 1.014v14.799c0 0.559 0.455 1.014 1.014 1.014h9.004c0.559 0 1.014-0.455 1.014-1.014v-14.799c0-0.559-0.455-1.014-1.014-1.014zM4.405 12.465h2.221c0.106 0 0.192 0.086 0.192 0.192s-0.086 0.192-0.192 0.192h-2.221c-0.106 0-0.192-0.086-0.192-0.192s0.086-0.192 0.192-0.192zM5.502 27.546c-0.29 0-0.525-0.235-0.525-0.525s0.235-0.525 0.525-0.525 0.525 0.235 0.525 0.525-0.235 0.525-0.525 0.525zM10.161 26.004c0 0.135-0.108 0.246-0.241 0.246h-8.808c-0.132 0-0.24-0.111-0.24-0.246v-12.298c0-0.135 0.108-0.246 0.24-0.246h8.808c0.132 0 0.241 0.111 0.241 0.246v12.298z"/></symbol><symbol id="icon-code" viewBox="0 0 32 32"><path d="M26.133 0h-20.267c-1.472 0.002-2.665 1.195-2.667 2.667v14.4c0.002 1.472 1.195 2.665 2.667 2.667h7.293l-0.762 2.667h-1.731v1.067h10.667v-1.067h-1.731l-0.762-2.667h7.293c1.472-0.002 2.665-1.195 2.667-2.667v-14.4c-0.002-1.472-1.195-2.665-2.667-2.667zM13.507 22.4l0.762-2.667h3.462l0.762 2.667h-4.986zM27.733 17.067c0 0.884-0.716 1.6-1.6 1.6h-20.267c-0.884 0-1.6-0.716-1.6-1.6v-1.067h23.467v1.067zM27.733 14.933h-23.467v-12.267c0-0.884 0.716-1.6 1.6-1.6h20.267c0.884 0 1.6 0.716 1.6 1.6v12.267z"/><path d="M20.267 24.533h-14.933c-0.295 0-0.533 0.239-0.533 0.533v6.4c0 0.295 0.239 0.533 0.533 0.533h14.933c0.295 0 0.533-0.239 0.533-0.533v-6.4c0-0.295-0.239-0.533-0.533-0.533zM19.733 30.933h-13.867v-5.333h13.867v5.333z"/><path d="M6.933 28.8h1.067v1.067h-1.067v-1.067z"/><path d="M6.933 26.667h1.067v1.067h-1.067v-1.067z"/><path d="M9.067 26.667h1.067v1.067h-1.067v-1.067z"/><path d="M11.2 26.667h1.067v1.067h-1.067v-1.067z"/><path d="M15.467 26.667h1.067v1.067h-1.067v-1.067z"/><path d="M13.333 26.667h1.067v1.067h-1.067v-1.067z"/><path d="M17.6 28.8h1.067v1.067h-1.067v-1.067z"/><path d="M17.6 26.667h1.067v1.067h-1.067v-1.067z"/><path d="M9.067 28.8h7.467v1.067h-7.467v-1.067z"/><path d="M24.533 24.533c-1.473 0-2.667 1.194-2.667 2.667v2.133c0 1.473 1.194 2.667 2.667 2.667s2.667-1.194 2.667-2.667v-2.133c0-1.473-1.194-2.667-2.667-2.667zM26.133 29.333c0 0.884-0.716 1.6-1.6 1.6s-1.6-0.716-1.6-1.6v-2.133c0-0.884 0.716-1.6 1.6-1.6s1.6 0.716 1.6 1.6v2.133z"/><path d="M24 26.667h1.067v1.067h-1.067v-1.067z"/><path d="M14.416 12.127l2.135-7.462 1.025 0.293-2.135 7.462-1.025-0.293z"/><path d="M13.141 6.276l-0.683-0.819-3.2 2.667c-0.226 0.189-0.257 0.525-0.068 0.751 0.021 0.025 0.043 0.047 0.068 0.068l3.2 2.667 0.683-0.819-2.708-2.257 2.708-2.257z"/><path d="M22.809 8.192c-0.021-0.025-0.043-0.047-0.068-0.068l-3.2-2.667-0.683 0.819 2.708 2.257-2.708 2.257 0.683 0.819 3.2-2.667c0.226-0.189 0.257-0.525 0.068-0.751z"/></symbol><symbol id="icon-wordpress" viewBox="0 0 32 32"><path d="M16 0c-8.82 0-16 7.175-16 16 0 8.82 7.18 16 16 16s16-7.18 16-16c0-8.827-7.18-16-16-16zM1.613 15.999c0-2.084 0.444-4.064 1.245-5.852l6.864 18.8c-4.801-2.335-8.109-7.256-8.109-12.948zM16 30.387c-1.413 0-2.775-0.207-4.064-0.588l4.316-12.541 4.42 12.116c0.032 0.072 0.065 0.135 0.103 0.2-1.491 0.523-3.097 0.813-4.775 0.813zM17.98 9.26v-0.001c0.864-0.045 1.644-0.135 1.644-0.135 0.775-0.091 0.684-1.232-0.091-1.188 0 0-2.329 0.18-3.832 0.18-1.413 0-3.788-0.18-3.788-0.18-0.773-0.045-0.863 1.143-0.089 1.188 0 0 0.735 0.091 1.509 0.135l2.239 6.141-3.148 9.439-5.237-15.58c0.865-0.045 1.645-0.135 1.645-0.135 0.775-0.091 0.684-1.232-0.091-1.188 0 0-2.329 0.18-3.832 0.18-0.271 0-0.588-0.007-0.929-0.019 2.575-3.904 6.993-6.484 12.020-6.484 3.743 0 7.155 1.433 9.716 3.773-0.065-0.007-0.123-0.012-0.187-0.012-1.413 0-2.413 1.232-2.413 2.555 0 1.187 0.684 2.187 1.413 3.375 0.548 0.955 1.188 2.187 1.188 3.968 0 1.232-0.471 2.657-1.097 4.652l-1.433 4.793zM28.627 9.097c1.123 2.052 1.761 4.4 1.761 6.904 0 5.309-2.877 9.941-7.155 12.432l-0.001-0.001 4.393-12.704c0.819-2.052 1.097-3.689 1.097-5.155 0-0.528-0.032-1.019-0.096-1.476z"/></symbol><symbol id="icon-code-1" viewBox="0 0 32 32"><path d="M29 8h-0.013l-2.252 0.058c-0.219-0.8-0.538-1.501-0.951-2.135l0.018 0.029 1.134-1.268c0.079-0.088 0.128-0.205 0.128-0.334 0-0.138-0.056-0.263-0.146-0.353v0l-1.414-1.414c-0.090-0.090-0.215-0.146-0.353-0.146-0.128 0-0.245 0.048-0.334 0.128l0-0-1.268 1.134c-0.706-0.46-1.529-0.813-2.412-1.011l-0.050-0.010-0.094-1.698c-0.015-0.264-0.233-0.472-0.499-0.472-0 0-0 0-0 0h-2c-0.266 0-0.484 0.208-0.499 0.47l-0 0.001-0.094 1.698c-0.932 0.208-1.756 0.561-2.491 1.038l0.029-0.018-1.268-1.134c-0.088-0.079-0.205-0.127-0.334-0.127-0.138 0-0.263 0.056-0.354 0.146v0l-1.414 1.414c-0.091 0.090-0.147 0.216-0.147 0.354 0 0.128 0.048 0.245 0.128 0.334l-0-0 1.134 1.268c-0.395 0.606-0.714 1.307-0.921 2.055l-0.012 0.053-9.249-0.060c-1.38 0.001-2.499 1.12-2.5 2.5v14c0.001 1.38 1.12 2.499 2.5 2.5h9.793l-0.708 2h-2.084c-0.276 0-0.5 0.224-0.5 0.5v0 1.5c0 0.276 0.224 0.5 0.5 0.5v0h12c0.276 0 0.5-0.224 0.5-0.5v0-1.5c0-0.276-0.224-0.5-0.5-0.5v0h-2.147l-0.708-2h9.855c1.38-0.001 2.499-1.12 2.5-2.5v-14c-0.001-1.38-1.12-2.499-2.5-2.5h-0zM10.992 9.481l1.617-0.090c0.236-0.014 0.428-0.189 0.465-0.417l0-0.003c0.175-1.053 0.579-1.988 1.16-2.786l-0.013 0.019c0.059-0.081 0.095-0.183 0.095-0.293 0-0.128-0.048-0.245-0.128-0.334l0 0-1.080-1.208 0.746-0.745 1.207 1.080c0.088 0.079 0.205 0.127 0.333 0.127 0.11 0 0.212-0.036 0.294-0.096l-0.001 0.001c0.779-0.568 1.715-0.973 2.73-1.142l0.038-0.005c0.231-0.038 0.407-0.23 0.42-0.465l0-0.001 0.090-1.616h1.054l0.090 1.617c0.014 0.236 0.19 0.427 0.417 0.465l0.003 0c1.053 0.174 1.988 0.579 2.786 1.16l-0.019-0.013c0.081 0.059 0.183 0.095 0.293 0.095 0.128 0 0.245-0.048 0.334-0.128l-0 0 1.207-1.080 0.745 0.745-1.080 1.207c-0.079 0.088-0.127 0.205-0.127 0.333 0 0.11 0.036 0.212 0.096 0.294l-0.001-0.001c0.568 0.779 0.973 1.715 1.142 2.73l0.005 0.038c0.038 0.23 0.229 0.406 0.464 0.42l0.001 0 1.617 0.090v1.054l-1.616 0.090c-0.236 0.013-0.428 0.189-0.466 0.417l-0 0.003c-0.174 1.053-0.579 1.988-1.16 2.786l0.013-0.019c-0.059 0.081-0.095 0.183-0.095 0.293 0 0.128 0.048 0.245 0.128 0.334l-0-0 1.080 1.207-0.745 0.746-1.207-1.080c-0.088-0.079-0.205-0.128-0.333-0.128-0.11 0-0.212 0.036-0.294 0.096l0.001-0.001c-0.779 0.568-1.715 0.972-2.73 1.141l-0.038 0.005c-0.231 0.038-0.406 0.23-0.42 0.465l-0 0.001-0.090 1.617h-1.054l-0.090-1.617c-0.013-0.236-0.189-0.428-0.417-0.466l-0.003-0c-1.053-0.174-1.988-0.578-2.786-1.159l0.019 0.013c-0.081-0.059-0.183-0.095-0.293-0.095-0.128 0-0.245 0.048-0.334 0.128l0-0-1.207 1.080-0.746-0.746 1.080-1.207c0.079-0.088 0.128-0.205 0.128-0.333 0-0.11-0.036-0.212-0.096-0.294l0.001 0.001c-0.568-0.78-0.972-1.715-1.142-2.729l-0.005-0.038c-0.038-0.231-0.229-0.407-0.464-0.42l-0.001-0-1.617-0.090zM21.5 30v0.5h-11v-0.5zM13.145 29l0.708-2h4.231l0.708 2zM30.5 24.5c-0.001 0.828-0.672 1.499-1.5 1.5h-26c-0.828-0.001-1.499-0.672-1.5-1.5v-0.5h29zM30.5 23h-29v-12.5c0.001-0.827 0.67-1.497 1.497-1.5h0l6.996 0.046v1.962c0 0.266 0.209 0.484 0.471 0.499l0.001 0 1.698 0.094c0.207 0.932 0.56 1.756 1.038 2.491l-0.018-0.029-1.134 1.268c-0.079 0.088-0.127 0.205-0.127 0.333 0 0.138 0.056 0.263 0.147 0.354v0l1.414 1.414c0.091 0.091 0.216 0.147 0.354 0.147 0.128 0 0.245-0.048 0.334-0.128l-0 0 1.268-1.134c0.706 0.46 1.529 0.813 2.412 1.011l0.050 0.009 0.094 1.698c0.015 0.264 0.233 0.472 0.499 0.473h2c0.266-0 0.484-0.208 0.499-0.471l0-0.001 0.094-1.698c0.932-0.207 1.756-0.56 2.491-1.038l-0.029 0.018 1.268 1.134c0.088 0.079 0.205 0.127 0.333 0.127 0.138 0 0.263-0.056 0.354-0.147l1.414-1.414c0.090-0.090 0.146-0.215 0.146-0.353 0-0.128-0.048-0.245-0.128-0.334l0 0-1.134-1.268c0.46-0.706 0.813-1.529 1.011-2.411l0.009-0.050 1.698-0.094c0.264-0.016 0.472-0.233 0.472-0.499v-2.007l0.013-0.001c0.826 0.004 1.493 0.674 1.494 1.5v0z"/><path d="M6.5 24.5h-3.5c-0.276 0-0.5 0.224-0.5 0.5s0.224 0.5 0.5 0.5v0h3.5c0.276 0 0.5-0.224 0.5-0.5s-0.224-0.5-0.5-0.5v0z"/><path d="M8.5 24.5h-0.5c-0.276 0-0.5 0.224-0.5 0.5s0.224 0.5 0.5 0.5v0h0.5c0.276 0 0.5-0.224 0.5-0.5s-0.224-0.5-0.5-0.5v0z"/><path d="M16.664 12.836c0.724 0.724 1.724 1.172 2.828 1.172 2.209 0 4-1.791 4-4s-1.791-4-4-4c-1.105 0-2.105 0.448-2.828 1.172v0c-0.727 0.722-1.177 1.723-1.177 2.828s0.45 2.106 1.177 2.828l0 0zM17.371 7.886c0.543-0.543 1.293-0.879 2.121-0.879 1.657 0 3 1.343 3 3s-1.343 3-3 3c-0.828 0-1.578-0.336-2.121-0.879v0c-0.548-0.541-0.887-1.291-0.887-2.121s0.339-1.581 0.887-2.121l0-0z"/><path d="M15.604 13.896c0.995 0.995 2.37 1.611 3.889 1.611 3.038 0 5.5-2.462 5.5-5.5s-2.462-5.5-5.5-5.5c-3.038 0-5.5 2.462-5.5 5.5v0c0 0.004-0 0.010-0 0.015 0 1.514 0.616 2.884 1.611 3.874l0 0zM16.311 6.825c0.814-0.814 1.939-1.318 3.182-1.318 2.485 0 4.5 2.015 4.5 4.5s-2.015 4.5-4.5 4.5c-2.485 0-4.5-2.015-4.5-4.5 0-0 0-0 0-0v0c0-0.002 0-0.004 0-0.006 0-1.241 0.504-2.364 1.318-3.176l0-0z"/><path d="M5.584 21.277c0.091 0.136 0.244 0.225 0.417 0.225 0.276 0 0.5-0.224 0.5-0.5 0-0.104-0.032-0.201-0.087-0.281l0.001 0.002-0.815-1.223 0.815-1.223c0.054-0.078 0.085-0.175 0.085-0.28 0-0.276-0.224-0.5-0.5-0.5-0.174 0-0.327 0.089-0.416 0.223l-0.001 0.002-1 1.5c-0.053 0.078-0.084 0.174-0.084 0.277s0.031 0.199 0.085 0.279l-0.001-0.002z"/><path d="M9.723 21.416c0.078 0.053 0.174 0.084 0.277 0.084 0.173 0 0.325-0.088 0.415-0.221l0.001-0.002 1-1.5c0.053-0.078 0.084-0.174 0.084-0.277s-0.031-0.199-0.085-0.279l0.001 0.002-1-1.5c-0.091-0.136-0.244-0.225-0.417-0.225-0.276 0-0.5 0.224-0.5 0.5 0 0.104 0.032 0.201 0.087 0.281l-0.001-0.002 0.815 1.223-0.815 1.223c-0.053 0.078-0.084 0.174-0.084 0.277 0 0.173 0.088 0.325 0.221 0.415l0.002 0.001z"/><path d="M7.342 21.474c0.047 0.016 0.102 0.026 0.158 0.026 0.22 0 0.406-0.142 0.473-0.338l0.001-0.004 1-3c0.016-0.047 0.026-0.102 0.026-0.158 0-0.276-0.224-0.5-0.5-0.5-0.22 0-0.406 0.142-0.473 0.338l-0.001 0.004-1 3c-0.016 0.047-0.026 0.102-0.026 0.158 0 0.22 0.142 0.406 0.338 0.473l0.004 0.001z"/></symbol></defs></svg>